<svg width="1440" height="900" viewBox="0 0 1440 900" fill="none" xmlns="http://www.w3.org/2000/svg">
<mask id="mask0_2001_16" style="mask-type:alpha" maskUnits="userSpaceOnUse" x="-82" y="-352" width="1604" height="1604">
<circle cx="720" cy="450" r="802" fill="url(#paint0_radial_2001_16)"/>
</mask>
<g mask="url(#mask0_2001_16)">
<line x1="2.62268e-08" y1="-0.3" x2="1440" y2="-0.299874" stroke="#051939" stroke-width="0.6"/>
<line x1="2.62268e-08" y1="112.2" x2="1440" y2="112.2" stroke="#051939" stroke-width="0.6"/>
<line x1="2.62268e-08" y1="224.7" x2="1440" y2="224.7" stroke="#051939" stroke-width="0.6"/>
<line x1="2.62268e-08" y1="337.2" x2="1440" y2="337.2" stroke="#051939" stroke-width="0.6"/>
<line x1="2.62268e-08" y1="449.7" x2="1440" y2="449.7" stroke="#051939" stroke-width="0.6"/>
<line x1="2.62268e-08" y1="562.2" x2="1440" y2="562.2" stroke="#051939" stroke-width="0.6"/>
<line x1="2.62268e-08" y1="674.7" x2="1440" y2="674.7" stroke="#051939" stroke-width="0.6"/>
<line x1="2.62268e-08" y1="787.2" x2="1440" y2="787.2" stroke="#051939" stroke-width="0.6"/>
<line x1="2.62268e-08" y1="899.7" x2="1440" y2="899.7" stroke="#051939" stroke-width="0.6"/>
<line x1="-0.3" y1="900" x2="-0.299937" y2="-540" stroke="#051939" stroke-width="0.6"/>
<line x1="110.469" y1="900" x2="110.469" y2="-540" stroke="#051939" stroke-width="0.6"/>
<line x1="221.238" y1="900" x2="221.239" y2="-540" stroke="#051939" stroke-width="0.6"/>
<line x1="332.008" y1="900" x2="332.008" y2="-540" stroke="#051939" stroke-width="0.6"/>
<line x1="442.777" y1="900" x2="442.777" y2="-540" stroke="#051939" stroke-width="0.6"/>
<line x1="553.546" y1="900" x2="553.546" y2="-540" stroke="#051939" stroke-width="0.6"/>
<line x1="664.315" y1="900" x2="664.315" y2="-540" stroke="#051939" stroke-width="0.6"/>
<line x1="775.085" y1="900" x2="775.085" y2="-540" stroke="#051939" stroke-width="0.6"/>
<line x1="885.854" y1="900" x2="885.854" y2="-540" stroke="#051939" stroke-width="0.6"/>
<line x1="996.623" y1="900" x2="996.623" y2="-540" stroke="#051939" stroke-width="0.6"/>
<line x1="1107.39" y1="900" x2="1107.39" y2="-540" stroke="#051939" stroke-width="0.6"/>
<line x1="1218.16" y1="900" x2="1218.16" y2="-540" stroke="#051939" stroke-width="0.6"/>
<line x1="1328.93" y1="900" x2="1328.93" y2="-540" stroke="#051939" stroke-width="0.6"/>
<line x1="1439.7" y1="900" x2="1439.7" y2="-540" stroke="#051939" stroke-width="0.6"/>
<g opacity="0.47">
<rect x="332.5" y="113.5" width="109" height="110" fill="#041A3E"/>
<rect x="332.5" y="113.5" width="109" height="110" fill="#041A3E"/>
<rect x="332.5" y="113.5" width="109" height="110" fill="#041A3E"/>
<rect x="332.5" y="113.5" width="109" height="110" fill="#041A3E"/>
<rect x="332.5" y="113.5" width="109" height="110" stroke="#041A3E"/>
</g>
<g opacity="0.47">
<rect x="886.5" y="1.5" width="110" height="110" fill="#041A3E"/>
<rect x="886.5" y="1.5" width="110" height="110" fill="#041A3E"/>
<rect x="886.5" y="1.5" width="110" height="110" fill="#041A3E"/>
<rect x="886.5" y="1.5" width="110" height="110" fill="#041A3E"/>
<rect x="886.5" y="1.5" width="110" height="110" stroke="#041A3E"/>
</g>
<g opacity="0.47">
<rect x="1218.5" y="225.5" width="110" height="111" fill="#041A3E"/>
<rect x="1218.5" y="225.5" width="110" height="111" fill="#041A3E"/>
<rect x="1218.5" y="225.5" width="110" height="111" fill="#041A3E"/>
<rect x="1218.5" y="225.5" width="110" height="111" fill="#041A3E"/>
<rect x="1218.5" y="225.5" width="110" height="111" stroke="#041A3E"/>
</g>
</g>
<defs>
<radialGradient id="paint0_radial_2001_16" cx="0" cy="0" r="1" gradientUnits="userSpaceOnUse" gradientTransform="translate(720 294.5) rotate(90) scale(957.5)">
<stop stop-color="#D9D9D9"/>
<stop offset="1" stop-color="#D9D9D9" stop-opacity="0"/>
</radialGradient>
</defs>
</svg>
